# ProBuilder 4.5.2
# https://unity3d.com/unity/features/worldbuilding/probuilder
# 16/8/2021 8:01:05 p. m.

mtllib ./Cylinder_(1).mtl
o Cylinder (1)

g Cylinder (1)
v 0.09957692 0.2283906 0.2404164
v 0.2197846 0.2283906 0.1202082
v 0.146523 0.2283906 0.08013883
v 0.04978841 0.2283906 0.1202082
v 0.3399922 0.2283906 6.548998E-08
v 0.1699961 0.2283906 6.548998E-08
v -9.717041E-08 0.2283906 6.548998E-08
v 0.3399922 0.2283906 0.3399999
v 0.3399922 0.2283906 0.17
v 0.2598538 0.2283906 0.1934721
v 0.2197846 0.2283906 0.2902081
v 0.5804234 0.2283906 0.2404164
v 0.4602078 0.2283906 0.1202082
v 0.420136 0.2283906 0.1934721
v 0.4602078 0.2283906 0.2902081
v 0.6800005 0.2283906 6.548998E-08
v 0.5099964 0.2283906 6.548998E-08
v 0.5334721 0.2283906 0.08013884
v 0.6302119 0.2283906 0.1202082
v 0.5804234 0.2283906 -0.2404162
v 0.4602078 0.2283906 -0.1202081
v 0.5334721 0.2283906 -0.08013871
v 0.6302119 0.2283906 -0.1202081
v 0.3399922 0.2283906 -0.3399997
v 0.3399922 0.2283906 -0.1699998
v 0.420136 0.2283906 -0.193472
v 0.4602078 0.2283906 -0.290208
v 0.09957692 0.2283906 -0.2404162
v 0.2197846 0.2283906 -0.1202081
v 0.2598538 0.2283906 -0.193472
v 0.2197846 0.2283906 -0.290208
v 0.146523 0.2283906 -0.08013871
v 0.04978841 0.2283906 -0.1202081
v 0.001780051 1.184723 0.7384852
v 0.1708861 1.18229 0.7212984
v 0.1462104 1.102516 0.7219747
v 0.04931953 1.063846 0.7309062
v 0.3399922 1.179856 0.7041116
v 0.2184256 1.061412 0.7137194
v 0.09685902 0.9429689 0.7233272
v 0.2570723 0.9876012 0.7081174
v 0.2156124 0.8914738 0.7101203
v 0.3371789 1.009917 0.7005125
v 0.3343657 0.8399786 0.6969135
v 0.4165174 0.9853057 0.6919128
v 0.45478 0.8880307 0.6858134
v 0.4575932 1.057969 0.6894125
v 0.5751942 0.9360828 0.6747133
v 0.5311356 1.096976 0.6828538
v 0.6267073 1.055535 0.6722249
v 0.5091063 1.177422 0.686924
v 0.6782203 1.174988 0.6697364
v 0.5337846 1.257195 0.6862475
v 0.6306808 1.295865 0.6773155
v 0.4615668 1.298299 0.6945031
v 0.5831413 1.416743 0.6848946
v 0.4229175 1.37211 0.7001053
v 0.4643801 1.468238 0.6981021
v 0.3428055 1.349794 0.7077106
v 0.3456188 1.519733 0.7113097
v 0.2634724 1.374406 0.7163099
v 0.2252124 1.471681 0.722409
v 0.2223992 1.301742 0.71881
v 0.1048061 1.423629 0.7335083
v 0.1488595 1.262736 0.7253684
v 0.05329308 1.304176 0.7359968
v 0.04978841 0.3807135 0.1178895
v 0.09957692 0.3641806 0.2357795
v -9.717041E-08 0.3972464 -4.31203E-07
v -9.717041E-08 0.5661023 -9.278961E-07
v 0.04978841 0.5330365 0.1155709
v 0.09957692 0.4999706 0.2311426
v 0.2197846 0.3573332 0.2846109
v 0.3399922 0.3504858 0.3334423
v 0.2197846 0.4862758 0.2790136
v 0.3399922 0.472581 0.3268847
v 0.4602078 0.3573332 0.2846109
v 0.5804234 0.3641806 0.2357795
v 0.4602078 0.4862758 0.2790136
v 0.5804234 0.4999706 0.2311426
v 0.6302119 0.3807135 0.1178895
v 0.6302119 0.5330365 0.1155709
v 0.6800005 0.5661023 -9.278961E-07
v 0.6800005 0.3972464 -4.31203E-07
v 0.6302119 0.5991681 -0.1155725
v 0.6302119 0.4137793 -0.1178903
v 0.5804234 0.632234 -0.231144
v 0.5804234 0.4303123 -0.2357801
v 0.4602078 0.4371597 -0.2846116
v 0.4602078 0.6459288 -0.2790152
v 0.3399922 0.6596236 -0.3268865
v 0.3399922 0.4440071 -0.3334431
v 0.2197846 0.4371597 -0.2846116
v 0.2197846 0.6459288 -0.2790152
v 0.09957692 0.632234 -0.231144
v 0.09957692 0.4303123 -0.2357801
v 0.04978841 0.4137793 -0.1178903
v 0.04978841 0.5991681 -0.1155725
v 0.09957692 0.7504825 0.2819031
v 0.09957692 0.6252266 0.2565229
v 0.04978841 0.6841572 0.1574854
v 0.04978841 0.8352779 0.1994
v -9.717041E-08 0.7430878 0.05844792
v -9.717041E-08 0.9200734 0.1168968
v 0.3399922 0.6802382 0.3502511
v 0.3399922 0.5764096 0.3385679
v 0.2197846 0.6008181 0.2975454
v 0.2197846 0.7153603 0.3160771
v 0.4602078 0.6008181 0.2975454
v 0.5804234 0.6252266 0.2565229
v 0.4602078 0.7153603 0.3160771
v 0.5804234 0.7504825 0.2819031
v 0.6302119 0.6841572 0.1574854
v 0.6800005 0.7430878 0.05844792
v 0.6302119 0.8352779 0.1994
v 0.6800005 0.9200734 0.1168968
v 0.6302119 0.8020175 -0.04058944
v 0.5804234 0.8609471 -0.1396268
v 0.6302119 1.004867 0.03439358
v 0.5804234 1.08966 -0.04810962
v 0.3399922 1.159905 -0.1164581
v 0.3399922 0.9097641 -0.2216723
v 0.4602078 0.8853556 -0.1806495
v 0.4602078 1.124782 -0.08228384
v 0.2197846 1.124782 -0.08228384
v 0.2197846 0.8853556 -0.1806495
v 0.09957692 1.08966 -0.04810962
v 0.09957692 0.8609471 -0.1396268
v 0.04978841 0.8020175 -0.04058944
v 0.04978841 1.004867 0.03439358
v 0.09753452 0.9592307 0.6184731
v 0.04943477 1.071088 0.6035315
v 0.09821002 0.9754924 0.5136189
v 0.04955 1.07833 0.4761568
v 0.0008899767 1.181167 0.4386947
v 0.001335014 1.182945 0.58859
v 0.09889347 0.8629875 0.397761
v 0.0496692 0.9568038 0.3377784
v 0.0004449398 1.05062 0.2777958
v 0.3357723 0.8644279 0.61575
v 0.2166534 0.9118292 0.6171115
v 0.337179 0.8888771 0.5345863
v 0.2176945 0.9321848 0.5241026
v 0.3385856 0.7845576 0.4424187
v 0.2187395 0.8237725 0.4200899
v 0.4588489 0.8229123 0.4140132
v 0.45749 0.9304642 0.5119493
v 0.5778009 0.9720513 0.4893122
v 0.5791122 0.8612669 0.3856077
v 0.456135 0.9092475 0.5988813
v 0.5764976 0.9540671 0.5820128
v 0.6791104 1.176299 0.4043206
v 0.6284556 1.074175 0.4468164
v 0.6275815 1.064855 0.5595207
v 0.6786654 1.175644 0.5370286
v 0.6293338 0.9547266 0.3231082
v 0.6795554 1.048186 0.2606087
v 0.5824579 1.399356 0.5071455
v 0.6305616 1.2875 0.522087
v 0.5817745 1.38197 0.3293965
v 0.6304424 1.279135 0.3668585
v 0.6303272 1.142001 0.200626
v 0.5810989 1.235815 0.1406434
v 0.3442121 1.494159 0.5098696
v 0.463335 1.446758 0.5085075
v 0.3428055 1.468585 0.3084295
v 0.46229 1.425278 0.318913
v 0.3413989 1.314245 0.09598574
v 0.4612489 1.27503 0.1183146
v 0.1021836 1.385411 0.3537031
v 0.2224945 1.426998 0.3310663
v 0.2238535 1.44934 0.5267377
v 0.1034948 1.40452 0.5436057
v 0.2211396 1.27589 0.1243912
v 0.1008802 1.237536 0.1527967
v 0.05153677 1.283289 0.3961989
v 0.05241492 1.293733 0.5660979
v 0.05066259 1.144078 0.2152962

vt 0.09957691 0.2404164
vt 0.2197846 0.1202082
vt 0.146523 0.08013884
vt 0.0497884 0.1202082
vt 0.3399922 6.963594E-08
vt 0.1699961 6.963594E-08
vt -1.071803E-07 6.963594E-08
vt 0.3399922 0.3399999
vt 0.3399922 0.17
vt 0.2598538 0.1934721
vt 0.2197846 0.2902081
vt 0.5804234 0.2404164
vt 0.4602078 0.1202082
vt 0.420136 0.1934721
vt 0.4602078 0.2902081
vt 0.6800005 6.548998E-08
vt 0.5099964 6.548998E-08
vt 0.5334721 0.08013884
vt 0.6302119 0.1202082
vt 0.5804234 -0.2404163
vt 0.4602078 -0.1202081
vt 0.5334721 -0.08013873
vt 0.6302119 -0.1202081
vt 0.3399922 -0.3399997
vt 0.3399922 -0.1699998
vt 0.420136 -0.193472
vt 0.4602078 -0.290208
vt 0.09957691 -0.2404163
vt 0.2197846 -0.1202081
vt 0.2598538 -0.193472
vt 0.2197846 -0.290208
vt 0.146523 -0.08013871
vt 0.0497884 -0.1202081
vt -0.07265985 1.201126
vt 0.09731738 1.198692
vt 0.07269914 1.118898
vt -0.02459856 1.080218
vt 0.2672946 1.196257
vt 0.1453786 1.077783
vt 0.02346272 0.9593093
vt 0.1843952 1.003951
vt 0.1429445 0.9077985
vt 0.2648604 1.026272
vt 0.2624242 0.85629
vt 0.3446604 1.001655
vt 0.383343 0.9043546
vt 0.3857791 1.074337
vt 0.5042628 0.9524191
vt 0.4596074 1.113353
vt 0.5557637 1.071902
vt 0.43728 1.19382
vt 0.6072652 1.191386
vt 0.4619008 1.273617
vt 0.5592039 1.312297
vt 0.3892187 1.314731
vt 0.5111426 1.433205
vt 0.3502039 1.38856
vt 0.3916573 1.484712
vt 0.2697334 1.366238
vt 0.2721696 1.53622
vt 0.1899355 1.390856
vt 0.1512556 1.488156
vt 0.1488194 1.318173
vt 0.03034373 1.440091
vt 0.07499261 1.279156
vt -0.02115837 1.320607
vt 0.2581002 0.2175204
vt 0.1290501 0.2207579
vt 0.1268123 0.3700309
vt 0.2536251 0.3504602
vt 3.776713E-08 0.2239954
vt -4.416029E-07 0.3896016
vt -9.209729E-07 0.5552079
vt 0.1245745 0.519304
vt 0.2491499 0.4834
vt 0.4700259 0.2482407
vt 0.3420244 0.2600736
vt 0.3389895 0.3688303
vt 0.4664704 0.3506862
vt 0.2140228 0.2719064
vt 0.2115087 0.3869743
vt 0.2089946 0.5020422
vt 0.3359547 0.4775869
vt 0.4629149 0.4531317
vt 0.3748197 0.4552546
vt 0.2460877 0.4455047
vt 0.2489598 0.553598
vt 0.3771991 0.5696434
vt 0.1173557 0.4357549
vt 0.1207206 0.5375525
vt 0.1240855 0.6393502
vt 0.2518319 0.6616912
vt 0.3795784 0.6840323
vt -0.06612152 0.3616537
vt -0.06167462 0.4937486
vt 0.06549089 0.5130591
vt 0.06326722 0.3646995
vt -0.05722775 0.6258435
vt 0.06771457 0.6614189
vt 0.1926569 0.6969942
vt 0.1926564 0.5323698
vt 0.1926559 0.3677454
vt -0.1905423 0.4052281
vt -0.06564944 0.4409082
vt -0.06342448 0.2600994
vt -0.1905428 0.2406765
vt 0.0592434 0.4765882
vt 0.06369381 0.2795222
vt 0.06814419 0.08245613
vt -0.06119952 0.07929052
vt -0.1905432 0.07612491
vt -0.3773062 -0.1084788
vt -0.3796654 0.0576528
vt -0.25133 0.07439975
vt -0.2484821 -0.09776986
vt -0.3820247 0.2237845
vt -0.2541779 0.2465694
vt -0.1263311 0.2693543
vt -0.1229946 0.09114671
vt -0.1196581 -0.08706086
vt -0.4661059 0.1155036
vt -0.46275 0.2933208
vt -0.3344879 0.276281
vt -0.3373524 0.1044903
vt -0.4593941 0.471138
vt -0.3316235 0.4480717
vt -0.2038529 0.4250055
vt -0.2062259 0.2592412
vt -0.2085988 0.09347691
vt 8.911616E-08 0.2227666
vt -0.1291499 0.226248
vt -0.1269167 0.4072086
vt -3.894419E-07 0.3874645
vt -0.2583 0.2297294
vt -0.2538331 0.4269527
vt -0.2493662 0.624176
vt -0.1246836 0.5881692
vt -8.68E-07 0.5521623
vt 0.2981401 0.7316855
vt 0.273645 0.6075428
vt 0.1650272 0.6696588
vt 0.2054799 0.8200137
vt 0.05640943 0.731775
vt 0.1128198 0.9083421
vt 0.4755841 0.6420747
vt 0.4692495 0.5476032
vt 0.3460026 0.5842106
vt 0.3560505 0.6908342
vt 0.2227557 0.620818
vt 0.2365168 0.7395937
vt 0.2423228 0.7680925
vt 0.366555 0.8026447
vt 0.1180905 0.7335402
vt 0.1120955 0.8277303
vt 0.2328136 0.8744937
vt 0.3535317 0.9212571
vt 0.02751743 0.8113945
vt 0.1366029 0.8732285
vt -0.08156808 0.7495604
vt -0.1059084 0.8732771
vt -0.01267974 0.96137
vt 0.08054894 1.049463
vt -0.1376285 0.6433005
vt -0.02860748 0.7052246
vt -0.2466496 0.5813766
vt -0.3027569 0.757525
vt -0.2096076 0.8456929
vt -0.1164584 0.9338608
vt -0.2334143 0.7811086
vt -0.1798727 0.5252314
vt -0.3042344 0.4903081
vt -0.3542909 0.7340469
vt -0.4285961 0.4553848
vt -0.4751675 0.6869851
vt -0.3516889 0.9822143
vt -0.230929 0.9348949
vt -0.2812763 0.6914833
vt -0.4055415 0.7266761
vt -0.1101691 0.8875754
vt -0.157011 0.6562905
vt 0.1126287 0.9043202
vt 0.05631393 0.7282413
vt -0.05243827 0.7904513
vt 0.01980701 0.9927336
vt -0.1611905 0.8526615
vt -0.07301471 1.081147
vt 0.7234572 0.9435421
vt 0.6224369 0.9540043
vt 0.5954241 1.072009
vt 0.7183263 1.071438
vt 0.5214165 0.9644664
vt 0.4725221 1.072579
vt 0.4236275 1.180691
vt 0.5684114 1.190013
vt 0.7131953 1.199335
vt 0.4097783 0.8480759
vt 0.339001 0.9462963
vt 0.2682237 1.044517
vt 0.658816 0.9289908
vt 0.6159912 0.9151013
vt 0.5166396 0.9892841
vt 0.566194 1.011648
vt 0.5731664 0.9012119
vt 0.4670852 0.9669203
vt 0.361004 1.032629
vt 0.4172881 1.063467
vt 0.4735721 1.094305
vt 0.5243753 0.7716433
vt 0.4115678 0.8288773
vt 0.2987604 0.8861113
vt 0.06359434 0.9575136
vt 0.1813934 1.009609
vt 0.01509317 1.087297
vt 0.1299732 1.144724
vt 0.2448532 1.202151
vt 0.2991925 1.061704
vt -0.02776155 1.101805
vt 0.08420291 1.164565
vt -0.07061624 1.116312
vt 0.03843254 1.184405
vt 0.1474813 1.252498
vt 0.1961672 1.227325
vt -0.1953502 1.317194
vt -0.2504562 1.2095
vt -0.3587902 1.207331
vt -0.3227467 1.324824
vt -0.3055621 1.101807
vt -0.3948337 1.089838
vt -0.4841051 1.077869
vt -0.4671241 1.205162
vt -0.4501431 1.332454
vt -0.131568 1.085435
vt -0.05740063 1.183328
vt -0.2057353 0.9875419
vt -0.820859 1.2981
vt -0.6500393 1.27013
vt -0.6778613 1.151705
vt -0.8269046 1.169589
vt -0.4792196 1.24216
vt -0.5288182 1.13382
vt -0.5784167 1.02548
vt -0.7056835 1.03328
vt -0.8329502 1.041079
vt -0.3692129 0.9897565
vt -0.297839 1.08801
vt -0.4405868 0.8915026
vt -0.6594937 1.48802
vt -0.5557737 1.366289
vt -0.6576259 1.291703
vt -0.7550067 1.404258
vt -0.4520536 1.244559
vt -0.560245 1.179149
vt -0.6684365 1.113739
vt -0.759478 1.217117
vt -0.8505196 1.320495
vt -0.342734 1.012834
vt -0.457268 0.9565976
vt -0.571802 0.9003618
vt 0.09325442 1.330465
vt -0.02168897 1.388869
vt 0.07729552 1.506088
vt 0.1893272 1.442142
vt -0.1366323 1.447273
vt -0.03473619 1.570033
vt 0.06715998 1.692793
vt 0.17628 1.623307
vt 0.2854 1.55382
vt -0.126309 1.161882
vt -0.008457328 1.10902
vt -0.2441606 1.214744
vt 0.4224391 1.178177
vt 0.3679342 1.286037
vt 0.5313948 1.306442
vt 0.5667423 1.188857
vt 0.3134294 1.393897
vt 0.4960473 1.424028
vt 0.6786652 1.454159
vt 0.6948553 1.326848
vt 0.7110455 1.199538
vt 0.2675339 1.041248
vt 0.1938706 1.139385
vt 0.1202073 1.237522

vn -0.4849274 -0.7265027 0.4868666
vn -4.648688E-08 -1 4.648431E-08
vn -0.6552585 -0.7043964 0.2728774
vn -0.6788682 -0.7342592 0.001174444
vn -8.14413E-06 -0.7174817 0.6965773
vn -0.2747889 -0.6919304 0.6676252
vn 0.4849206 -0.7265044 0.4868711
vn 0.2747734 -0.6919302 0.6676317
vn 0.6788682 -0.7342592 0.001174444
vn 0.6552585 -0.7043963 0.2728775
vn 0.4829272 -0.7295538 -0.4842858
vn 0.6540347 -0.7058328 -0.2721005
vn -8.002048E-06 -0.7251091 -0.688634
vn 0.2728813 -0.6986126 -0.6614198
vn -0.4829341 -0.7295521 -0.4842813
vn -0.2728967 -0.6986127 -0.6614134
vn -0.6540347 -0.7058328 -0.2721004
vn -0.6381846 -0.0112655 0.7698009
vn 0.1007627 -0.02273406 0.9946507
vn -0.6220427 -0.2972622 0.7243605
vn -0.4539751 -0.5335364 0.7136143
vn -0.2400748 -0.7395238 0.6288629
vn 0.05541686 -0.780427 0.6227863
vn 0.3388411 -0.7288571 0.5949404
vn 0.550158 -0.5171892 0.655623
vn 0.6953297 -0.2916749 0.6568426
vn 0.717799 -0.03059624 0.6955778
vn 0.7026764 0.2445717 0.6681547
vn 0.5599704 0.4620387 0.687716
vn 0.3569455 0.6643284 0.6567022
vn 0.08582355 0.7107481 0.6981916
vn -0.209316 0.6933259 0.6895549
vn -0.4328675 0.5090478 0.7439731
vn -0.6134695 0.2842911 0.7367726
vn -0.9208747 0.006117663 0.3898106
vn -0.7009386 0.02450343 0.7128006
vn -0.999997 0.001464125 0.001936139
vn -0.9999873 0.002163523 0.004555518
vn -0.9211475 -0.04656019 0.3864186
vn -0.7005627 -0.05484564 0.71148
vn -0.3740703 0.0403391 0.9265226
vn -1.15294E-05 0.05106426 0.9986954
vn -0.3711887 -0.04970678 0.9272261
vn -1.150052E-05 -0.03161684 0.9995001
vn 0.374049 0.04033947 0.9265312
vn 0.7009304 0.02450371 0.7128086
vn 0.3711676 -0.04970726 0.9272345
vn 0.7005547 -0.05484624 0.7114879
vn 0.9208747 0.006117665 0.3898108
vn 0.9211475 -0.0465602 0.3864188
vn 0.9999873 0.002163525 0.004555535
vn 0.999997 0.001464123 0.001936139
vn 0.9225429 0.0688058 -0.3797108
vn 0.9214327 0.004756325 -0.388509
vn 0.7068908 0.1407063 -0.6931862
vn 0.7029189 0.01625868 -0.7110842
vn 0.3774298 0.02478655 -0.9257064
vn 0.3805845 0.1904894 -0.904914
vn -1.160203E-05 0.2105772 -0.9775772
vn -1.153177E-05 0.02949559 -0.9995649
vn -0.3774512 0.02478631 -0.9256977
vn -0.380606 0.1904875 -0.9049053
vn -0.7068991 0.1407046 -0.6931781
vn -0.7029272 0.01625849 -0.711076
vn -0.9214327 0.004756323 -0.3885088
vn -0.922543 0.06880576 -0.3797106
vn -0.6962978 -0.341386 0.6313676
vn -0.6822604 -0.1440975 0.7167681
vn -0.9123366 -0.1082502 0.3948718
vn -0.9176111 -0.2076764 0.3389106
vn -0.999964 0.002171978 0.008201679
vn -0.9999635 0.003883864 0.007604538
vn -6.734479E-05 -0.4141155 0.9102243
vn -1.088226E-05 -0.1238441 0.9923017
vn -0.346188 -0.1487941 0.9262906
vn -0.3585177 -0.415431 0.8359917
vn 0.3461679 -0.1487952 0.9262979
vn 0.6822526 -0.1440989 0.7167753
vn 0.3600385 -0.4039343 0.8409574
vn 0.6953768 -0.3250612 0.6409261
vn 0.9123365 -0.1082503 0.394872
vn 0.999964 0.002171975 0.008201689
vn 0.9160432 -0.1990243 0.3482158
vn 0.9999563 0.000770489 0.009318094
vn 0.915404 0.1391495 -0.3777208
vn 0.6930699 0.2675382 -0.6693859
vn 0.9191978 0.2252334 -0.3230253
vn 0.7011247 0.4287041 -0.5697691
vn 4.436334E-05 0.6202037 -0.7844408
vn -1.11353E-05 0.3857985 -0.9225831
vn 0.3655781 0.353621 -0.8609906
vn 0.373089 0.5688747 -0.7329298
vn -0.3758939 0.5725695 -0.7286068
vn -0.365599 0.3536178 -0.860983
vn -0.7056134 0.434297 -0.559907
vn -0.6930782 0.2675352 -0.6693785
vn -0.9154041 0.1391494 -0.3777207
vn -0.9199257 0.2334289 -0.3150358
vn -0.6922945 -0.7120659 -0.1170065
vn -0.9168576 -0.3984172 -0.02521673
vn -0.7043662 -0.6759901 0.216577
vn -0.9168951 -0.3768357 0.1315228
vn -0.9999971 0.0006619163 0.002313251
vn -0.9999802 0.004980357 -0.003861762
vn -0.6794451 -0.5269446 0.510572
vn -0.9127326 -0.3070431 0.2695249
vn -0.999991 0.001352922 0.004028584
vn -0.03122945 -0.9615197 -0.2729551
vn -0.3637431 -0.9086918 -0.2048663
vn -0.002920315 -0.9597939 0.2806906
vn -0.3606743 -0.8916223 0.2737219
vn 0.009884648 -0.6671816 0.7448295
vn -0.3395137 -0.6524158 0.6775574
vn 0.3625739 -0.6248488 0.6914508
vn 0.366262 -0.8894075 0.2735079
vn 0.7066936 -0.6716083 0.2225455
vn 0.6876677 -0.4929044 0.5330651
vn 0.312834 -0.9236758 -0.2212645
vn 0.6634931 -0.7360728 -0.1340666
vn 0.9999232 -0.01187909 0.00352399
vn 0.9123015 -0.3842077 0.1417404
vn 0.9051335 -0.4240854 -0.02974725
vn 0.9997655 -0.02120733 -0.004389177
vn 0.9100419 -0.2944742 0.2917341
vn 0.9999422 -0.001819854 0.01059588
vn 0.6971194 0.7138116 -0.06706332
vn 0.9178636 0.3964558 -0.01868693
vn 0.6924486 0.6692309 -0.2695275
vn 0.9162423 0.3721397 -0.1483644
vn 0.9133458 0.3135802 -0.2597438
vn 0.6832631 0.5752718 -0.4496821
vn 0.007636765 0.9924156 -0.1226905
vn 0.3642099 0.9254063 -0.1047585
vn -0.00696286 0.930206 -0.3669719
vn 0.3496568 0.8705215 -0.3463126
vn -0.01013603 0.8064865 -0.5911656
vn 0.3496563 0.7468002 -0.5657119
vn -0.6922151 0.6748669 -0.2557202
vn -0.366517 0.8673014 -0.3368287
vn -0.3597556 0.9273124 -0.103284
vn -0.685365 0.7250237 -0.06793645
vn -0.3688735 0.7510325 -0.5476153
vn -0.691735 0.5821359 -0.4273413
vn -0.9113147 0.3871029 -0.1402031
vn -0.9093652 0.4155022 -0.02031763
vn -0.9126563 0.3242113 -0.2488884

usemtl Marron
f 1/1/1 4/4/3 3/3/2 2/2/2
f 3/3/2 6/6/2 5/5/2 2/2/2
f 4/4/3 7/7/4 6/6/2 3/3/2
f 9/9/2 8/8/5 11/11/6 10/10/2
f 2/2/2 5/5/2 9/9/2 10/10/2
f 1/1/1 2/2/2 10/10/2 11/11/6
f 14/14/2 13/13/2 12/12/7 15/15/8
f 9/9/2 5/5/2 13/13/2 14/14/2
f 8/8/5 9/9/2 14/14/2 15/15/8
f 18/18/2 17/17/2 16/16/9 19/19/10
f 13/13/2 5/5/2 17/17/2 18/18/2
f 13/13/2 18/18/2 19/19/10 12/12/7
f 21/21/2 20/20/11 23/23/12 22/22/2
f 5/5/2 21/21/2 22/22/2 17/17/2
f 23/23/12 16/16/9 17/17/2 22/22/2
f 25/25/2 24/24/13 27/27/14 26/26/2
f 25/25/2 26/26/2 21/21/2 5/5/2
f 26/26/2 27/27/14 20/20/11 21/21/2
f 28/28/15 31/31/16 30/30/2 29/29/2
f 30/30/2 25/25/2 5/5/2 29/29/2
f 30/30/2 31/31/16 24/24/13 25/25/2
f 7/7/4 33/33/17 32/32/2 6/6/2
f 6/6/2 32/32/2 29/29/2 5/5/2
f 33/33/17 28/28/15 29/29/2 32/32/2
f 35/35/19 34/34/18 37/37/20 36/36/19
f 35/35/19 36/36/19 39/39/19 38/38/19
f 37/37/20 40/40/21 39/39/19 36/36/19
f 39/39/19 40/40/21 42/42/22 41/41/19
f 38/38/19 39/39/19 41/41/19 43/43/19
f 41/41/19 42/42/22 44/44/23 43/43/19
f 45/45/19 43/43/19 44/44/23 46/46/24
f 47/47/19 38/38/19 43/43/19 45/45/19
f 48/48/25 47/47/19 45/45/19 46/46/24
f 47/47/19 48/48/25 50/50/26 49/49/19
f 51/51/19 38/38/19 47/47/19 49/49/19
f 51/51/19 49/49/19 50/50/26 52/52/27
f 51/51/19 52/52/27 54/54/28 53/53/19
f 55/55/19 38/38/19 51/51/19 53/53/19
f 56/56/29 55/55/19 53/53/19 54/54/28
f 58/58/30 57/57/19 55/55/19 56/56/29
f 38/38/19 55/55/19 57/57/19 59/59/19
f 60/60/31 59/59/19 57/57/19 58/58/30
f 62/62/32 61/61/19 59/59/19 60/60/31
f 61/61/19 63/63/19 38/38/19 59/59/19
f 62/62/32 64/64/33 63/63/19 61/61/19
f 64/64/33 66/66/34 65/65/19 63/63/19
f 63/63/19 65/65/19 35/35/19 38/38/19
f 65/65/19 66/66/34 34/34/18 35/35/19
f 68/70/36 67/69/35 4/68/3 1/67/1
f 67/69/35 69/72/37 7/71/4 4/68/3
f 71/74/39 70/73/38 69/72/37 67/69/35
f 72/75/40 71/74/39 67/69/35 68/70/36
f 74/79/42 73/78/41 11/77/6 8/76/5
f 73/78/41 68/81/36 1/80/1 11/77/6
f 75/83/43 72/82/40 68/81/36 73/78/41
f 76/84/44 75/83/43 73/78/41 74/79/42
f 77/87/45 15/86/8 12/85/7 78/88/46
f 74/90/42 8/89/5 15/86/8 77/87/45
f 76/91/44 74/90/42 77/87/45 79/92/47
f 79/92/47 77/87/45 78/88/46 80/93/48
f 78/95/46 12/94/7 19/97/10 81/96/49
f 80/98/48 78/95/46 81/96/49 82/99/50
f 82/99/50 81/96/49 84/101/52 83/100/51
f 81/96/49 19/97/10 16/102/9 84/101/52
f 83/103/51 84/106/52 86/105/54 85/104/53
f 85/104/53 86/105/54 88/108/56 87/107/55
f 23/110/12 20/109/11 88/108/56 86/105/54
f 84/106/52 16/111/9 23/110/12 86/105/54
f 20/112/11 27/115/14 89/114/57 88/113/56
f 87/116/55 88/113/56 89/114/57 90/117/58
f 90/117/58 89/114/57 92/119/60 91/118/59
f 27/115/14 24/120/13 92/119/60 89/114/57
f 24/121/13 31/124/16 93/123/61 92/122/60
f 92/122/60 93/123/61 94/126/62 91/125/59
f 93/123/61 96/128/64 95/127/63 94/126/62
f 31/124/16 28/129/15 96/128/64 93/123/61
f 69/133/37 97/132/65 33/131/17 7/130/4
f 97/132/65 96/135/64 28/134/15 33/131/17
f 95/136/63 96/135/64 97/132/65 98/137/66
f 70/138/38 98/137/66 97/132/65 69/133/37
f 102/142/70 101/141/69 100/140/68 99/139/67
f 101/141/69 71/74/39 72/75/40 100/140/68
f 103/143/71 70/73/38 71/74/39 101/141/69
f 104/144/72 103/143/71 101/141/69 102/142/70
f 108/148/76 107/147/75 106/146/74 105/145/73
f 107/147/75 75/83/43 76/84/44 106/146/74
f 100/149/68 72/82/40 75/83/43 107/147/75
f 99/150/67 100/149/68 107/147/75 108/148/76
f 110/152/78 109/151/77 79/92/47 80/93/48
f 109/151/77 106/153/74 76/91/44 79/92/47
f 111/155/79 105/154/73 106/153/74 109/151/77
f 112/156/80 111/155/79 109/151/77 110/152/78
f 113/157/81 82/99/50 83/100/51 114/158/82
f 110/159/78 80/98/48 82/99/50 113/157/81
f 112/160/80 110/159/78 113/157/81 115/161/83
f 115/161/83 113/157/81 114/158/82 116/162/84
f 85/104/53 87/107/55 118/164/86 117/163/85
f 83/103/51 85/104/53 117/163/85 114/165/82
f 116/166/84 114/165/82 117/163/85 119/167/87
f 119/167/87 117/163/85 118/164/86 120/168/88
f 124/172/92 123/171/91 122/170/90 121/169/89
f 90/117/58 91/118/59 122/170/90 123/171/91
f 87/116/55 90/117/58 123/171/91 118/173/86
f 120/174/88 118/173/86 123/171/91 124/172/92
f 122/178/90 126/177/94 125/176/93 121/175/89
f 126/177/94 128/180/96 127/179/95 125/176/93
f 94/126/62 95/127/63 128/180/96 126/177/94
f 91/125/59 94/126/62 126/177/94 122/178/90
f 130/184/98 129/183/97 103/182/71 104/181/72
f 103/182/71 129/183/97 98/137/66 70/138/38
f 129/183/97 128/185/96 95/136/63 98/137/66
f 127/186/95 128/185/96 129/183/97 130/184/98
f 132/189/100 131/188/99 40/187/21 37/190/20
f 132/189/100 134/192/102 133/191/101 131/188/99
f 136/194/104 135/193/103 134/192/102 132/189/100
f 136/194/104 132/189/100 37/190/20 34/195/18
f 134/192/102 138/197/106 137/196/105 133/191/101
f 138/197/106 102/142/70 99/139/67 137/196/105
f 138/197/106 139/198/107 104/144/72 102/142/70
f 135/193/103 139/198/107 138/197/106 134/192/102
f 42/202/22 141/201/109 140/200/108 44/199/23
f 141/201/109 143/204/111 142/203/110 140/200/108
f 131/206/99 133/205/101 143/204/111 141/201/109
f 40/207/21 131/206/99 141/201/109 42/202/22
f 143/204/111 145/209/113 144/208/112 142/203/110
f 145/209/113 108/148/76 105/145/73 144/208/112
f 137/210/105 99/150/67 108/148/76 145/209/113
f 133/205/101 137/210/105 145/209/113 143/204/111
f 146/212/114 144/211/112 105/154/73 111/155/79
f 147/214/115 142/213/110 144/211/112 146/212/114
f 148/215/116 147/214/115 146/212/114 149/216/117
f 149/216/117 146/212/114 111/155/79 112/156/80
f 140/217/108 142/213/110 147/214/115 150/218/118
f 44/219/23 140/217/108 150/218/118 46/220/24
f 46/220/24 150/218/118 151/222/119 48/221/25
f 150/218/118 147/214/115 148/215/116 151/222/119
f 155/226/123 154/225/122 153/224/121 152/223/120
f 154/225/122 151/228/119 148/227/116 153/224/121
f 50/230/26 48/229/25 151/228/119 154/225/122
f 52/231/27 50/230/26 154/225/122 155/226/123
f 156/232/124 115/161/83 116/162/84 157/233/125
f 149/234/117 112/160/80 115/161/83 156/232/124
f 148/227/116 149/234/117 156/232/124 153/224/121
f 153/224/121 156/232/124 157/233/125 152/223/120
f 54/238/28 159/237/127 158/236/126 56/235/29
f 158/236/126 159/237/127 161/240/129 160/239/128
f 159/237/127 155/242/123 152/241/120 161/240/129
f 54/238/28 52/243/27 155/242/123 159/237/127
f 162/244/130 119/167/87 120/168/88 163/245/131
f 157/246/125 116/166/84 119/167/87 162/244/130
f 152/241/120 157/246/125 162/244/130 161/240/129
f 161/240/129 162/244/130 163/245/131 160/239/128
f 58/250/30 165/249/133 164/248/132 60/247/31
f 165/249/133 167/252/135 166/251/134 164/248/132
f 165/249/133 158/254/126 160/253/128 167/252/135
f 56/255/29 158/254/126 165/249/133 58/250/30
f 167/252/135 169/257/137 168/256/136 166/251/134
f 169/257/137 124/172/92 121/169/89 168/256/136
f 163/258/131 120/174/88 124/172/92 169/257/137
f 160/253/128 163/258/131 169/257/137 167/252/135
f 173/262/141 172/261/140 171/260/139 170/259/138
f 172/261/140 164/264/132 166/263/134 171/260/139
f 62/266/32 60/265/31 164/264/132 172/261/140
f 64/267/33 62/266/32 172/261/140 173/262/141
f 175/269/143 174/268/142 125/176/93 127/179/95
f 174/268/142 168/270/136 121/175/89 125/176/93
f 166/263/134 168/270/136 174/268/142 171/260/139
f 171/260/139 174/268/142 175/269/143 170/259/138
f 177/273/145 176/272/144 135/271/103 136/274/104
f 173/276/141 170/275/138 176/272/144 177/273/145
f 64/277/33 173/276/141 177/273/145 66/278/34
f 66/278/34 177/273/145 136/274/104 34/279/18
f 176/272/144 178/281/146 139/280/107 135/271/103
f 178/281/146 130/184/98 104/181/72 139/280/107
f 175/282/143 127/186/95 130/184/98 178/281/146
f 170/275/138 175/282/143 178/281/146 176/272/144

